<?xml version="1.0" encoding="iso-8859-1"?>
<!-- Generator: Adobe Illustrator 19.0.0, SVG Export Plug-In . SVG Version: 6.00 Build 0)  -->
<svg version="1.1" id="Capa_1" xmlns="http://www.w3.org/2000/svg" xmlns:xlink="http://www.w3.org/1999/xlink" x="0px" y="0px"
	 viewBox="0 0 512 512" style="enable-background:new 0 0 512 512;" xml:space="preserve">
<g>
	<path style="fill:#F39E86;" d="M496.46,231.71c1.161-6.325,2.472-17.172,1.031-29.421c-2.903-24.672-15.504-43.748-36.517-55.378
		c-4.825-13.293-25.646-59.923-84.733-75.89c-7.042-7.901-32.571-32.069-76.845-26.113c-0.157-0.124-0.313-0.247-0.462-0.364
		c-6.468-5.11-19.927-15.742-42.934-15.742s-36.466,10.632-42.934,15.742c-0.15,0.118-0.305,0.241-0.461,0.364
		c-44.28-5.959-69.803,18.212-76.845,26.113c-59.086,15.966-79.909,62.596-84.733,75.89c-21.014,11.629-33.614,30.706-36.517,55.378
		c-1.441,12.251-0.129,23.097,1.031,29.421C9.285,237.018,0,248.27,0,268.286c0,35.471,13.893,66.916,41.294,93.459
		c22.692,21.982,50.149,36.566,70.196,47.213c10.14,5.386,19.719,10.473,23.058,13.813c1.914,1.915,2.056,10.758,2.141,16.043
		c0.15,9.331,0.303,18.978,5.897,25.019c9.191,9.926,30.793,15.909,66.038,18.293c23.45,1.586,44.516,0.97,47.377,0.875
		c1.312,0.043,6.45,0.196,13.891,0.196c8.788,0,20.788-0.214,33.485-1.071c35.245-2.383,56.846-8.366,66.038-18.293
		c5.594-6.041,5.749-15.688,5.897-25.019c0.085-5.284,0.226-14.129,2.141-16.043c3.338-3.338,12.918-8.426,23.058-13.813
		c20.047-10.648,47.503-25.231,70.196-47.213C498.107,335.201,512,303.758,512,268.286C512,248.27,502.715,237.018,496.46,231.71z"
		/>
	<path style="fill:#F39E86;" d="M14.343,203.862c0.409-0.376,0.808-0.728,1.196-1.057c-0.196-1.07-0.396-2.279-0.587-3.594
		c-0.157,1.021-0.321,2.038-0.444,3.078C14.446,202.817,14.396,203.34,14.343,203.862z"/>
	<path style="fill:#F39E86;" d="M497.657,203.862c-0.053-0.522-0.102-1.045-0.165-1.573c-0.123-1.041-0.287-2.057-0.444-3.078
		c-0.191,1.314-0.391,2.524-0.587,3.594C496.848,203.134,497.248,203.486,497.657,203.862z"/>
</g>
<path style="fill:#F08568;" d="M470.706,332.837c-22.692,21.982-50.149,36.566-70.196,47.213
	c-10.14,5.386-19.719,10.473-23.058,13.813c-1.914,1.915-2.056,10.758-2.141,16.043c-0.15,9.331-0.303,18.978-5.897,25.019
	c-9.191,9.926-30.793,15.909-66.038,18.293c-12.698,0.859-24.698,1.071-33.485,1.071c-7.441,0-12.579-0.153-13.891-0.196
	c-2.86,0.095-23.926,0.71-47.377-0.875c-35.245-2.383-56.846-8.366-66.038-18.293c-5.594-6.041-5.749-15.688-5.897-25.019
	c-0.085-5.284-0.226-14.129-2.141-16.043c-3.338-3.338-12.918-8.426-23.058-13.813c-20.047-10.648-47.503-25.231-70.196-47.213
	C18.445,310.704,4.997,285.16,1.157,256.715C0.438,260.203,0,264.035,0,268.286c0,35.471,13.893,66.916,41.294,93.459
	c22.692,21.982,50.149,36.566,70.196,47.213c10.14,5.386,19.719,10.473,23.058,13.813c1.914,1.915,2.056,10.758,2.141,16.043
	c0.15,9.331,0.303,18.978,5.897,25.019c9.191,9.926,30.793,15.909,66.038,18.293c23.45,1.586,44.516,0.97,47.377,0.875
	c1.312,0.043,6.45,0.196,13.891,0.196c8.788,0,20.788-0.214,33.485-1.071c35.245-2.383,56.846-8.366,66.038-18.293
	c5.594-6.041,5.749-15.688,5.897-25.019c0.085-5.284,0.226-14.129,2.141-16.043c3.338-3.338,12.918-8.426,23.058-13.813
	c20.047-10.648,47.503-25.231,70.196-47.213C498.107,335.201,512,303.758,512,268.286c0-4.251-0.438-8.084-1.157-11.571
	C507.003,285.16,493.555,310.704,470.706,332.837z"/>
<g>
	<path style="fill:#ED6D4A;" d="M458.183,261.055c-3.994-2.204-9.018-0.753-11.22,3.241l-66.065,119.742
		c-2.015,3.651-0.919,8.382,2.507,10.764c3.971,2.761,9.619,1.447,11.954-2.786l66.065-119.742
		C463.627,268.282,462.176,263.258,458.183,261.055z"/>
	<path style="fill:#ED6D4A;" d="M424.227,202.811c-4.234-1.695-9.04,0.366-10.733,4.602L303.656,482.105
		c6.648-0.454,12.806-1.037,18.488-1.751l106.685-266.809C430.522,209.31,428.462,204.505,424.227,202.811z"/>
	<path style="fill:#ED6D4A;" d="M356.839,111.569c-4.457-0.965-8.852,1.871-9.815,6.33l-16.043,74.323
		c-0.938,4.345,1.859,8.765,6.185,9.781c4.438,1.042,8.997-1.842,9.959-6.296l16.043-74.323
		C364.131,116.925,361.298,112.531,356.839,111.569z"/>
	<path style="fill:#ED6D4A;" d="M333.666,218.924c-4.456-0.964-8.852,1.871-9.815,6.33l-55.678,257.941
		c0.559,0.002,1.127,0.003,1.717,0.003c4.381,0,9.56-0.054,15.226-0.213l54.88-254.246
		C340.958,224.28,338.124,219.886,333.666,218.924z"/>
	<path style="fill:#ED6D4A;" d="M298.17,86.655c-4.531-0.479-8.604,2.796-9.091,7.332l-24.774,231.226
		c-0.479,4.474,2.857,8.612,7.332,9.091c4.474,0.478,8.611-2.857,9.091-7.332l24.774-231.226
		C305.987,91.212,302.706,87.141,298.17,86.655z"/>
	<path style="fill:#ED6D4A;" d="M53.817,261.055c-3.994,2.203-5.444,7.226-3.241,11.22l66.065,119.742
		c2.335,4.232,7.981,5.547,11.954,2.786c3.427-2.382,4.522-7.113,2.507-10.764L65.036,264.297
		C62.835,260.304,57.811,258.85,53.817,261.055z"/>
	<path style="fill:#ED6D4A;" d="M87.773,202.811c-4.235,1.694-6.295,6.499-4.602,10.733l106.685,266.809
		c5.682,0.713,11.84,1.297,18.488,1.751L98.506,207.413C96.814,203.179,92.007,201.12,87.773,202.811z"/>
	<path style="fill:#ED6D4A;" d="M164.975,117.899c-0.962-4.457-5.353-7.294-9.815-6.33c-4.458,0.962-7.292,5.356-6.33,9.815
		l49.911,231.226c0.961,4.452,5.523,7.341,9.959,6.296c4.325-1.019,7.124-5.433,6.185-9.781L164.975,117.899z"/>
	<path style="fill:#ED6D4A;" d="M212.201,375.827c-4.458,0.962-7.292,5.356-6.33,9.815l21.012,97.342
		c6.427,0.181,12.222,0.225,16.941,0.211l-21.81-101.037C221.054,377.698,216.66,374.863,212.201,375.827z"/>
	<path style="fill:#ED6D4A;" d="M222.921,93.986c-0.486-4.536-4.55-7.811-9.091-7.332c-4.536,0.486-7.817,4.556-7.332,9.091
		l24.774,231.226c0.48,4.475,4.616,7.81,9.091,7.332c4.475-0.478,7.811-4.617,7.332-9.091L222.921,93.986z"/>
</g>
<g>
</g>
<g>
</g>
<g>
</g>
<g>
</g>
<g>
</g>
<g>
</g>
<g>
</g>
<g>
</g>
<g>
</g>
<g>
</g>
<g>
</g>
<g>
</g>
<g>
</g>
<g>
</g>
<g>
</g>
</svg>
